<?xml version="1.0" encoding="UTF-8" standalone="no"?>
<svg
   xmlns:dc="http://purl.org/dc/elements/1.1/"
   xmlns:cc="http://creativecommons.org/ns#"
   xmlns:rdf="http://www.w3.org/1999/02/22-rdf-syntax-ns#"
   xmlns:svg="http://www.w3.org/2000/svg"
   xmlns="http://www.w3.org/2000/svg"
   xmlns:xlink="http://www.w3.org/1999/xlink"
   xmlns:sodipodi="http://sodipodi.sourceforge.net/DTD/sodipodi-0.dtd"
   xmlns:inkscape="http://www.inkscape.org/namespaces/inkscape"
   version="1.1"
   id="Layer_1"
   inkscape:version="0.92.3 (2405546, 2018-03-11)"
   sodipodi:docname="neuron2.svg"
   x="0px"
   y="0px"
   width="422.36658"
   height="252.22174"
   viewBox="95.99 91.087 422.36658 252.22174"
   enable-background="new 95.99 91.087 410 485"
   xml:space="preserve"
   sodipodi:version="0.32"
   inkscape:output_extension="org.inkscape.output.svg.inkscape"
   inkscape:export-filename="C:\Users\carcu\Downloads\neuron2.png"
   inkscape:export-xdpi="96"
   inkscape:export-ydpi="96"><metadata
   id="metadata374"><rdf:RDF><cc:Work
       rdf:about=""><dc:format>image/svg+xml</dc:format><dc:type
         rdf:resource="http://purl.org/dc/dcmitype/StillImage" /><dc:title></dc:title></cc:Work></rdf:RDF></metadata>
<defs
   id="defs3">


		<inkscape:perspective
   id="perspective1924"
   sodipodi:type="inkscape:persp3d"
   inkscape:vp_x="0 : 298.22197 : 1"
   inkscape:vp_y="0 : 1000 : 0"
   inkscape:vp_z="819.17903 : 298.22197 : 1"
   inkscape:persp3d-origin="409.58951 : 198.81466 : 1">
		</inkscape:perspective>

		<inkscape:perspective
   id="perspective5530"
   sodipodi:type="inkscape:persp3d"
   inkscape:vp_x="0 : 0.5 : 1"
   inkscape:vp_y="0 : 1000 : 0"
   inkscape:vp_z="1 : 0.5 : 1"
   inkscape:persp3d-origin="0.5 : 0.33333333 : 1">
		</inkscape:perspective>

		<inkscape:perspective
   id="perspective5562"
   sodipodi:type="inkscape:persp3d"
   inkscape:vp_x="0 : 0.5 : 1"
   inkscape:vp_y="0 : 1000 : 0"
   inkscape:vp_z="1 : 0.5 : 1"
   inkscape:persp3d-origin="0.5 : 0.33333333 : 1">
		</inkscape:perspective>

		<inkscape:perspective
   id="perspective5604"
   sodipodi:type="inkscape:persp3d"
   inkscape:vp_x="0 : 0.5 : 1"
   inkscape:vp_y="0 : 1000 : 0"
   inkscape:vp_z="1 : 0.5 : 1"
   inkscape:persp3d-origin="0.5 : 0.33333333 : 1">
		</inkscape:perspective>
</defs>
<sodipodi:namedview
   id="namedview1918"
   pagecolor="#ffffff"
   bordercolor="#666666"
   borderopacity="1"
   objecttolerance="10"
   gridtolerance="10"
   guidetolerance="10"
   showgrid="false"
   inkscape:zoom="1.6691662"
   inkscape:cx="114.86831"
   inkscape:cy="117.03745"
   inkscape:window-maximized="1"
   inkscape:pageopacity="0"
   inkscape:pageshadow="2"
   inkscape:window-width="1920"
   inkscape:window-height="1017"
   inkscape:snap-grids="false"
   inkscape:window-x="-8"
   inkscape:window-y="-8"
   inkscape:current-layer="Layer_1"
   fit-margin-top="0"
   fit-margin-left="0"
   fit-margin-right="0"
   fit-margin-bottom="0">
	</sodipodi:namedview>
<path
   id="path5"
   d="m 465.26605,541.59864 c -0.139,-1.656 -0.288,-6.494 0.411,-7.613 0.199,-0.318 1.938,1.543 2.281,0.277 0.176,-0.652 -0.865,-1.123 -1.263,-1.449 -0.869,-0.717 -1.605,-1.609 -2.308,-2.484 -1.375,-1.719 -2.621,-3.549 -4.284,-5.014 -1.634,-1.438 -4.537,-1.922 -5.817,-3.711 -1.447,-2.02 -0.729,-2.762 -0.007,-6.037 2.816,-0.188 5.537,-1.34 8.182,-2.236 1.453,-0.494 3.006,-0.799 4.438,-1.328 1.021,-0.379 1.078,-1.066 -0.206,-1.127 -0.809,-0.037 -1.739,0.225 -2.538,0.354 -1.905,0.309 -3.798,0.711 -5.672,1.178 -6.734,1.676 -10.933,-1.523 -17.217,-2.482 -1.785,-0.271 -2.384,-0.488 -3.749,-1.574 -2.104,-1.672 -5.927,-6.564 -5.184,-9.416 0.335,-1.283 2.644,-2.164 2.864,-3.398 0.268,-1.486 -1.822,-3.463 -1.939,-5.266 -0.3,-4.643 5.786,-9.594 8.772,-12.65 0.151,0.18 0.715,0.471 0.901,0.717 2.735,-4.346 5.704,-2.34 8.018,1.006 1.296,1.873 2.168,3.15 4.064,4.52 1.822,1.314 2.048,1.16 2.233,3.057 0.171,1.738 0.113,3.867 0.084,5.658 1.378,-1.158 0.42,-4.199 0.982,-5.926 1.573,0 4.679,1.385 6.627,1.945 0.699,0.199 2.688,0.654 2.737,1.48 -0.584,0.109 -1.202,-0.336 -1.712,-0.633 -0.709,-0.412 -1.433,-0.869 -1.952,-1.516 1.146,-0.631 2.292,0.189 3.343,-0.152 0.86,-0.279 0.142,-0.523 -0.478,-0.648 -1.359,-0.277 -2.797,0.42 -4.162,0.369 -1.91,-0.07 -3.65,-0.705 -5.104,-1.961 -1.657,-1.436 -3.288,-2.916 -4.773,-4.518 -1.529,-1.648 -1.392,-3.639 -2.532,-5.01 3.184,-2.564 13.021,-0.365 14.864,2.594 0.487,0.781 0.461,2.961 1.069,3.371 1.601,1.082 1.433,-0.979 1.364,-1.713 -0.146,-1.602 -2.305,-3.846 -3.582,-4.658 0.932,-0.871 1.908,-0.781 3.06,-0.98 0.566,-0.1 1.203,-0.014 0.652,-0.582 -0.497,-0.514 -2.377,-0.531 -3.063,-0.512 -1.508,0.043 -1.729,0.516 -2.715,0.748 -2.009,0.473 -4.409,-0.301 -6.451,-0.35 -4.337,-0.1 -7.404,1.055 -5.323,-3.992 0.76,-1.844 2.896,-5.094 1.772,-6.971 -2.841,0.988 -2.687,7.025 -4.115,9.4 -1.623,2.697 -2.816,1.281 -5.256,2.813 -2.269,1.424 -2.152,5.307 -5.335,5.514 -4.754,0.311 -5.207,-8.865 -5.393,-11.973 -0.27,-4.523 2.402,-11.479 7.21,-12.912 2.552,-0.76 6.446,1.098 7.839,-2.146 -1.366,-0.086 -5.896,0.887 -6.59,-0.125 -0.932,-1.357 1.133,-3.719 1.948,-4.607 2.456,-2.674 3.484,-2.348 4.408,-6.008 1.021,-4.055 3.308,-6.463 7.512,-7.406 3.253,-0.73 12.187,-0.197 11.722,-6.211 -5.079,0.242 -9.378,6.203 -14.591,5.25 -0.778,-4.063 0.832,-10.068 3.276,-13.281 2.736,-3.598 11.257,-4.539 11.295,-9.551 -2.66,0.713 -5.086,3.373 -7.61,4.557 -2.97,1.391 -2.479,1.135 -2.659,-1.414 -0.172,-2.408 0.097,-4.822 0.24,-7.18 0.169,-2.734 1.848,-5.727 1.357,-8.385 -2.961,0.389 -2.412,7.953 -2.6,10.322 -0.155,1.975 -0.954,4.047 -1.052,5.99 -0.06,1.191 0.735,2.041 0.04,3.342 -0.372,0.693 -1.562,0.748 -1.955,1.393 -0.339,0.553 -0.156,1.387 -0.367,1.918 -0.681,1.723 -0.939,3.193 -1.018,5.008 -0.137,3.201 -0.968,4.152 -2.407,6.98 -0.93,1.828 -3.69,15.762 -7.859,10.969 -2.046,-2.352 1.009,-11.801 1.35,-14.689 0.122,-1.037 0.91,-9.016 -2.031,-6.842 0.351,1.422 0.492,3.01 0.69,4.557 0.307,2.389 1.298,11.678 -2.481,9.689 -1.989,-1.047 -2.85,-7.053 -5.241,-7.021 -3.593,0.043 1.9,4.387 2.566,5.35 1.614,2.334 3.373,5.896 3.73,8.674 0.455,3.531 -9.293,20.939 -11.924,18.367 -1.874,-1.836 0.455,-11.063 0.683,-13.365 0.138,-1.398 1.044,-9.916 -2.706,-6.26 1.281,2.818 2.396,4.566 1.983,7.592 -0.986,7.229 -4.279,14.365 -10.939,17.971 -5.446,2.949 -9.716,-4.002 -10.315,-7.281 -0.559,-3.049 1.181,-6.059 2.975,-9.418 0.761,-1.422 3.702,-9.281 4.354,-9.832 -5.125,4.328 -7.093,16.031 -13.872,14.826 -5.669,-1.004 0.119,-10.828 -5.23,-13.313 1.401,2.453 2.591,5.289 1.657,8.885 -1.802,6.93 -2.208,5.084 4.255,7.559 2.746,1.047 4.944,2.748 4.062,6.5 -1.954,8.289 -7.263,3.305 -10.352,2.176 -4.667,-1.707 -11.81,0.039 -14.988,-3.668 -2.805,-3.266 0.633,-8.943 -0.708,-12.752 -0.932,-2.641 -5.491,-6.408 -7.619,-9.084 2.151,2.107 3.183,6.426 3.934,9.49 0.728,2.977 -0.747,5.84 -0.458,8.875 -3.342,0.93 -6.4,-2.209 -9.62,-2.568 -4.04,-0.453 -5.512,-0.115 -7.738,-2.902 -4.001,-5.008 -5.258,-7.68 -13.797,-7.088 4.075,1.16 8.441,0.863 10.598,4.236 1.538,2.406 0.962,7.119 4.412,8.154 4.206,1.26 9.979,-0.143 14.103,1.752 2.379,1.094 6.005,2.984 7.882,4.664 -4.213,3.436 -9.28,2.813 -13.54,6.764 8.813,-3.883 19.541,-6.703 28.59,-2.025 7.775,4.018 -3.664,6.918 -6.582,7.74 -2.347,0.664 -4.696,1.441 -6.855,2.592 -1.488,0.791 -3.759,3.646 -5.006,4.029 -2.769,0.848 -2.433,-3.193 -1.811,-5.367 0.866,-3.025 3.509,-5.227 2.207,-8.545 -2.976,0.604 -3.287,8.293 -3.999,10.586 -2.188,-0.01 -3.899,-0.9 -6.02,-0.861 -2.004,0.037 -4.929,0.559 -6.516,-1.158 -4.807,-5.203 1.846,-12.979 -0.735,-17.838 -2.112,2.23 -0.271,7.764 -2.933,9.195 -1.347,-1.156 -1.86,-2.512 -2.825,-3.957 -0.878,-1.318 -3.469,-3.479 -2.506,-0.318 0.371,1.217 3.217,3.006 3.997,4.301 1.119,1.857 1.786,3.967 2.333,6.018 0.43,1.615 1.991,5.658 -1.427,5.021 -0.716,-0.133 -1.698,-1.588 -2.23,-2.104 -2.295,-2.227 -5.737,-4.24 -7.531,-6.873 0.808,2.178 8.117,7.291 7.392,9.563 -3.202,1.006 -6.011,5 -9.275,5.066 -3.554,0.07 -6.605,-2.855 -9.667,-3.939 -2.73,-0.969 -6.019,-0.145 -8.591,-1.41 -2.764,-1.359 -3.951,-4.475 -5.109,-7.188 1.366,2.939 2.5,6.184 4.674,8.797 -2.396,1.168 -4.474,3.057 -6.656,4.352 -1.754,1.041 -4.338,1.691 -5.883,3.072 2.894,-0.369 5.955,-1.586 8.492,-3.006 1.438,-0.805 3.061,-1.57 4.447,-2.426 0.499,-0.309 0.432,-1.301 1.026,-1.525 1.856,-0.695 3.831,0.678 5.591,0.857 1.892,0.193 2.933,-0.145 4.676,0.4 4.29,1.34 6.685,4.32 11.667,2.092 5.082,-2.273 7.944,-5.975 14.006,-5.75 2.287,0.086 6.259,-0.125 8.019,1.586 3.127,3.039 2.372,8.412 3.894,12.082 1.092,2.633 2.85,7.197 1.479,9.982 -2.269,4.605 -7.751,-0.961 -10.07,-2.951 -1.813,2.082 2.705,3.27 3.308,5.25 -1.621,0.115 -3.861,0.857 -5.3,0.717 -8.925,-0.891 -1.053,-13.156 -5.795,-17.023 -0.063,3.611 2.622,7.088 -3.751,6.662 -4.189,-0.279 -4.993,-3.674 -7.946,-5.178 -5.434,-2.773 -16.415,0.678 -22.825,-2.723 3.998,3.387 7.152,4.006 13.637,4.055 2.271,0.016 4.689,-0.006 6.551,0.643 1.665,0.578 3.094,2.813 5.1,2.615 -2.096,2.48 -5.696,3.828 -8.346,6.271 5.758,-1.633 11.059,-5.977 14.81,-2.189 1.47,1.48 1.18,4.398 2.313,6.08 1.017,1.51 2.67,2.139 3.645,3.684 -6.787,5.9 -9.642,3.963 -16.79,6.564 3.01,-0.314 6.494,0.281 9.56,-0.564 3.333,-0.918 5.809,-3.91 8.732,-5.439 3.271,-1.715 10.117,-2.404 11.274,0.188 1.548,3.467 -7.182,10.387 -10.391,13.654 -17.317,17.627 -36.745,35.178 -55.579,51.465 -9.47,8.189 -19.204,16.033 -28.966,23.846 h 10.256 c 1.896,-1.641 3.799,-3.264 5.711,-4.861 10.804,-9.025 21.954,-17.615 32.552,-26.883 10.708,-9.365 21.209,-17.506 31.916,-26.949 7.287,-6.428 20.713,-18.475 29.267,-16.551 4.521,1.021 0.337,14.52 1.817,19.334 0.768,2.492 4.104,5.18 2.856,8.125 -0.554,1.311 -3.59,3.242 -4.464,5.246 -0.403,0.928 -0.068,2.922 -0.192,3.982 -1.113,9.564 -3.035,17.645 -8.238,26.75 7.444,-4.791 7.731,-16.539 9.043,-22.467 0.813,-3.662 0.549,-8.5 5.899,-10.961 4.703,-2.16 4.338,1.434 7.079,2.721 4.618,2.168 13.376,1.371 18.868,2.717 7.198,1.766 15.389,3.219 21.419,6.506 3.326,1.814 6.67,4.529 7.46,8.012 0.968,4.256 0.345,8.6 2.452,12.371 -0.106,-3.164 -0.502,-5.395 -1.152,-8.088 -0.491,-2.027 -2.172,-4.887 1.533,-7.236 2.026,2.094 6.415,0.803 8.847,0.35 0.583,-0.105 3.584,-0.236 2.752,-1.012 -0.472,-0.439 -1.913,-0.172 -2.513,-0.172 -1.554,0 -3.109,-0.074 -4.648,-0.287 -2.616,-0.361 -5.232,-1.131 -7.397,-2.691 -8.943,-6.443 -24.399,-5.148 -33.319,-12.033 -2.352,1.143 -6.53,0.523 -4.689,-2.461 1.099,-1.787 9.521,-3.232 11.187,-3.553 6.505,-1.244 15.601,-2.807 20.387,-0.111 0.436,0.246 0.896,1.953 1.812,2.426 2.474,1.277 6.29,0.537 8.499,2.018 -2.229,-2.141 -6.019,-2.561 -8.435,-4.613 -1.673,-1.418 -5.445,-2.881 -5.365,-5.283 -5.989,0.855 -12.687,3.484 -18.05,2.844 2.311,-3.563 7.596,-6.203 10.444,-8.936 0.782,-0.748 1.487,-0.367 2.534,-1.52 0.478,-0.525 0.641,-2.439 1.091,-3.219 1,-1.734 1.865,-3.498 3.016,-5.107 -3.595,7.789 -9.348,9.33 -15.211,15.439 -4.521,4.711 -13.046,9.947 -17.989,9.242 -3.182,-0.449 -6.962,-2.557 -8.134,-4.547 -0.702,-1.191 -0.183,-3.061 -0.848,-4.242 -0.7,-1.238 -2.397,-0.494 -2.983,-1.865 -2.091,-4.898 0.91,-14.098 2.435,-20.084 5.998,-2.676 12.426,4.168 11.794,9.023 -0.494,3.793 -1.804,7.822 -2.098,11.41 1.425,-3.525 2.353,-7.121 3.704,-10.604 1.367,-3.521 0.763,-4.957 3.941,-3.195 1.882,1.045 3.949,4.48 5.101,6.295 1.052,1.654 1.208,4.188 0.722,5.902 1.419,-5.945 -2.245,-14.195 -6.479,-16.617 3.563,-2.107 6.696,1.051 9.745,-3.801 -0.099,-0.271 -0.212,-0.533 -0.338,-0.789 -0.233,-0.473 12.468,-4.266 12.823,-4.42 -2.983,-0.078 -7.104,0.744 -10.389,1.893 -2.372,0.832 -13.199,6.021 -9.075,0.682 1.915,-2.48 6.896,-3.193 9.321,-5.104 1.466,-1.154 2.338,-4.355 4.041,-5.367 3.604,-2.143 5.245,1.936 7.444,2.57 3.823,1.104 8.558,-0.617 10.961,2.787 0.875,1.236 0.822,2.854 1.577,4.133 1.018,1.727 2.389,2.025 3.952,2.963 3.041,1.822 4.36,3.869 3.938,7.617 -0.206,1.83 -1.841,5.705 -0.416,7.045 1.408,-2.361 0.432,-16.328 5.768,-7.453 3.134,5.211 1.512,15.625 0.293,21.055 1.459,-1.754 0.039,-5.49 1.267,-7.322 0.633,-0.943 1.381,-0.258 1.918,0.379 0.54,0.641 0.67,1.443 1.277,2.035 0.096,0.094 -0.208,-0.967 -0.25,-1.051 -0.209,-0.432 -0.539,-0.834 -0.771,-1.262 -0.594,-1.082 -1.079,-2.222 -1.182,-3.445 z"
   inkscape:connector-curvature="0"
   style="fill:#e2e2e2" />
<path
   id="path7"
   d="m 407.67005,142.13964 c -2.157,-1.842 -5.013,-3.797 -4.923,-6.143 0.062,1.43 1.354,1.927 2.461,1.382 -0.209,-0.631 -0.334,-1.206 -0.411,-1.914 2.398,-0.336 2.55,-4.602 1.252,-6.13 1.538,0.083 3.29,1.659 4.6,2.449 1.813,1.093 3.544,2.303 5.284,3.505 2.309,1.594 4.232,3.967 6.287,5.851 1.825,1.674 4.337,3.547 4.499,6.244 0.153,2.545 -3.692,3.832 -5.784,4.318 -2.978,0.692 -6.17,0.138 -7.993,-2.524 -1.169,-1.707 -2.254,-3.536 -3.5,-5.25 -0.43,-0.59 -1.064,-1.183 -1.772,-1.788 z"
   inkscape:connector-curvature="0"
   style="fill:#00a0c6" />
<path
   id="path9"
   d="m 424.76505,170.61564 c -0.318,-2.695 -1.155,-6.244 -2.533,-8.597 -1.334,-2.278 -3.969,-4.614 -3.914,-7.454 0.853,0.529 2.265,4.395 3.528,3.48 1.149,-0.832 -1.517,-2.621 -0.086,-3.878 1.327,1.35 3.852,4.065 5.919,3.759 1.791,-0.265 2.772,-2.592 1.654,-3.935 1.349,-0.712 0.693,-2.443 -0.06,-3.456 3.957,2.824 5.487,9.532 7.85,13.559 1.245,2.124 2.977,5.408 3.415,7.851 0.991,5.523 -8.634,5.953 -12.224,5.741 -4.155,-0.246 -4.216,-0.502 -3.575,-4.654 0.125,-0.791 0.121,-1.608 0.026,-2.416 z"
   inkscape:connector-curvature="0"
   style="fill:#ca66ba;fill-opacity:1" />
<path
   id="path11"
   d="m 422.47305,207.35264 c -1.053,-1.173 -1.617,-2.563 -1.249,-4.73 0.552,-3.252 2.687,-6.041 3.229,-9.277 0.398,-2.389 0.545,-4.771 0.545,-7.257 0,-1.625 -0.628,-5.085 0.529,-6.227 0.495,0.553 0.831,3.614 1.972,2.808 0.881,-0.624 -0.326,-2.96 -0.369,-3.75 2.13,1.705 1.605,4.178 5.186,4.222 2.304,0.028 6.008,-1.242 5.638,-4 1.42,-0.611 1.411,1.324 1.908,2.245 0.483,-0.938 0.543,-2.035 0.513,-3.058 0.24,0.002 0.479,-0.017 0.728,0.001 1.66,0.12 2.277,18.433 2.446,20.201 0.393,4.112 1.938,11.935 -2.401,14.159 -4.854,2.488 -11.248,0.578 -15.29,-2.538 -1.297,-0.999 -2.51,-1.824 -3.385,-2.799 z"
   inkscape:connector-curvature="0"
   style="fill:#ca66ba;fill-opacity:1" />
<path
   id="path13"
   d="m 396.03105,252.09264 c -2.629,-2.987 -3.738,-6.39 -3.114,-11.076 0.364,-2.74 1.57,-4.022 3.7,-5.426 4.231,-2.788 7.637,-6.404 10.983,-10.342 3.02,-3.551 5.743,-7.34 8.272,-11.252 1.208,-1.869 2.84,-8.504 5.342,-8.688 -0.036,2.042 -2.436,4.385 -1.63,6.623 1.205,3.354 4.109,0.684 5.772,-0.546 0.552,0.906 1.049,1.864 1.568,2.797 2.761,-0.696 5.396,-1.212 6.932,1.737 0.751,1.441 -0.266,6.196 0.718,6.963 3.367,2.623 5.137,-7.741 5.081,-9.194 0.064,1.724 0.802,3.058 0.487,5.063 -0.424,2.714 -1.57,5.32 -2.796,7.756 -2.531,5.033 -5.087,10.041 -8.431,14.71 -3.042,4.246 -6.155,8.829 -9.651,12.797 -5.321,6.041 -13.697,5.901 -20.021,1.026 -1.241,-0.956 -2.315,-1.928 -3.212,-2.948 z"
   inkscape:connector-curvature="0"
   style="fill:#00a0c6" />
<path
   id="path15_11_"
   d="m 152.51205,89.206642 c 0.941,0.956 1.83,2.175 3.232,2.428 -0.016,0.099 0.001,0.349 0.001,0.461 -2.027,-0.004 -3.572,2.801996 -5.133,3.812996 -1.929,1.25 -3.158,-0.947 -4.961,-1.535 0.026,1.986 3.664,2.033 3.941,3.59 0.214,1.206 -2.392,3.444002 -2.737,4.785002 1.251,0.921 5.274,-6.280002 6.342,-7.403002 2.263,-2.379 5.398,-3.198996 8.428,-4.139996 2.971,-0.923 5.861,-2.034 8.89,-2.782 1.235,-0.305 5.188,-1.896 5.756,-0.551 0.335,0.794 -0.704,2.864 -1.109,3.563 -0.901,1.553996 -1.752,3.136996 -3.568,3.436996 -0.5,0.083 -5.027,-0.456 -3.792,0.516 1.233,0.968 3.459,-0.585 4.798,-0.142 0.217,1.433 -1.829,3.482 -2.424,4.776002 -1.039,2.263 0.425,1.958 1.375,0.315 1.114,-1.928002 1.866,-4.175002 2.757,-6.200002 0.679,-1.542996 1.42,-3.008996 2.274,-4.457996 1.761,-2.984 5.316,-4.376 8.417,-2.499 2.54,1.539 5.124,3.21 7.408,5.246 1.533,1.365996 2.879,2.720996 4.602,3.859996 1.74,1.151 3.513,2.481 4.719,4.133002 1.399,1.917 2.478,3.974 2.171,6.439 -0.529,4.257 -3.547,7.915 -7.04,10.21 -0.571,0.375 -1.513,0.629 -1.372,1.533 0.232,1.495 2.49,0.467 2.358,2.029 -0.076,0.904 -1.936,2.542 -2.521,3.143 -1.215,1.249 -2.595,2.325 -3.94,3.426 -2.69,2.203 -5.438,4.108 -8.595,5.536 -4.798,2.17 -9.543,4.622 -14.629,5.99 -1.422,0.382 -3.881,0.675 -4.992,1.544 -0.626,0.489 -1.072,1.378 -0.138,1.875 0.74,0.393 2.001,-0.47 2.549,-0.834 0.917,-0.611 1.408,-0.976 2.569,-1.333 2.245,-0.69 6.42,-2.689 8.771,-2.084 3.003,0.773 -2.145,7.73 -3.248,9.051 -1.862,2.229 -3.559,4.593 -5.306,6.929 -0.98,1.311 -3.086,3.078 -3.61,4.63 -0.274,0.813 -0.325,1.767 0.824,1.732 1.201,-0.036 1.623,-2.172 2.094,-2.944 2.189,-3.592 5.768,-6.647 8.354,-9.974 2.562,-3.294 5.183,-6.652 7.915,-9.75 2.464,-2.794 5.629,-5.744 8.774,-7.749 0.824,-0.525 2.135,-1.531 3.129,-0.859 1.248,0.844 0.276,3.034 -0.129,4.093 -0.901,2.358 -2.31,4.441 -3.462,6.682 -0.807,1.57 -2.673,4.133 -2.913,5.884 -0.143,1.038 -0.073,1.146 1.002,0.718 1.023,-0.407 1.374,-1.467 1.673,-2.484 1.083,-3.687 2.596,-6.82 4.514,-10.151 0.776,-1.348 1.667,-2.665 2.609,-3.914 0.969,-1.285 2.15,-3.293 3.599,-4.087 3.738,-2.049 4.92,3.013 5.637,5.744 1.25,4.763 1.989,9.761 2.563,14.646 0.35,2.986 0.023,7.685 1.584,10.25 2.506,-5.183 -1.036,-15.32 -1.945,-21.038 -0.94,-5.916 0.82,-8.041 5.089,-10.42 3.74,-2.086 7.342,-1.715 11.145,-3.819 5.033,-2.785 8.412,-4.156 13.997,-1.682 2.566,1.137 4.519,4.282 4.547,7.098 0.018,1.84 -1.787,2.901 -3.243,3.603 -0.903,0.435 -9.149,2.604 -8.576,3.835 0.768,1.648 8.212,-3.44 10.09,-3.073 2.121,0.415 -4.885,13.839 -5.662,15.132 -2.657,4.427 -7.006,4.795 -11.682,4.241 -2,-0.237 -4.028,-0.759 -5.726,-1.867 -0.713,-0.465 -1.714,-1.606 -2.705,-0.863 -2.635,1.976 6.681,3.575 7.425,3.753 1.302,0.311 3.027,0.704 2.775,2.146 -0.239,1.377 -2.043,2.258 -3.046,3.005 -1.493,1.112 -2.965,2.257 -4.527,3.284 -2.929,1.926 -5.958,3.694 -9.124,5.198 -1.255,0.596 -3.23,1.318 -3.989,2.576 -0.524,0.869 -0.677,1.968 0.172,2.626 1.349,1.046 2.451,-0.517 3.146,-1.556 0.98,-1.465 1.968,-2.316 3.432,-3.431 1.87,-1.425 4.854,-3.663 7.157,-3.979 0.114,2.047 -0.937,3.217 -1.538,5.128 -0.761,2.414 -1.549,4.816 -2.519,7.197 -1.188,2.917 -2.56,3.618 -5.245,5.19 -0.945,0.553 -2.931,1.466 -3.521,2.455 -0.965,1.612 0.881,1.271 1.852,0.511 2.031,-1.591 3.555,-2.925 5.981,-3.8 0.425,0.891 0.126,1.97 0.374,2.906 0.405,1.53 1.272,1.303 1.375,-0.301 0.077,-1.197 -0.66,-2.158 -0.515,-3.292 0.286,-2.241 1.625,-4.743 2.58,-6.776 1.475,-3.142 3.019,-6.377 4.69,-9.412 0.771,-1.4 1.988,-2.482 3.221,-3.569 2.105,-1.856 4.625,-5.288 7.54,-5.814 4.409,-0.796 0.425,9.2 -0.155,10.901 -0.672,1.976 -1.24,3.456 -2.705,4.982 -0.974,1.015 -2.332,1.826 -3.18,2.919 -0.471,0.609 -1.107,1.14 -0.091,1.378 1.1,0.258 2.173,-1.627 2.713,-2.359 0.767,-1.039 1.993,-3.618 3.417,-3.778 0.17,1.238 -0.339,2.408 -0.614,3.589 -0.519,2.229 -0.905,4.48 -1.423,6.712 -0.615,2.652 -0.749,6.038 -2.042,8.463 -1.241,2.328 -3.866,4.501 -5.575,6.51 -1.178,1.383 -2.472,2.731 -3.579,4.12 -0.372,0.467 -1.339,1.591 -1.192,2.231 0.468,2.052 3.45,-3.081 4.309,-3.722 0.746,1.787 -0.323,3.966 0.329,5.779 1.934,-0.849 0.672,-4.065 1.041,-5.672 0.469,-2.047 2.557,-4.146 3.79,-5.881 0.413,-0.581 1.458,-3.05 2.408,-3.026 1.095,0.028 1.194,3.85 1.203,4.788 0.021,2.313 -2.234,3.531 -3.67,5.167 -0.474,0.539 -2.151,1.751 -1.81,2.58 0.511,1.235 1.788,0.044 2.208,-0.427 0.691,-0.775 1.36,-1.962 1.896,-2.853 0.215,-0.357 0.403,-1.366 0.896,-1.514 1.181,-0.354 1.125,1.502 1.977,1.84 1.063,-1.197 -0.126,-3.753 -0.124,-5.314 0.003,-2.401 -0.155,-4.872 -0.306,-7.261 -0.168,-2.681 0.242,-5.302 0.696,-7.91 0.557,-3.198 0.844,-6.441 1.29,-9.655 0.3,-2.161 -0.077,-5.223 1.406,-7.03 1.466,-1.785 2.546,0.665 2.945,2.141 0.838,3.093 0.873,6.405 1.233,9.568 0.243,2.128 0.056,4.694 0.595,6.746 0.256,0.975 0.899,2.203 1.955,1.298 1.2,-1.028 -0.018,-2.835 -0.398,-3.852 -1.128,-3.017 -1.296,-7.229 -1.514,-10.499 -0.095,-1.417 -0.007,-2.376 1.543,-1.938 0.951,0.269 2.604,2.845 3.628,2.611 0.752,-0.171 0.65,-0.949 0.387,-1.43 -0.49,-0.892 -1.652,-0.749 -2.454,-1.114 -1.582,-0.721 -2.904,-2.386 -3.784,-3.834 -0.916,-1.508 -2.357,-3.015 -2.884,-4.641 -0.53,-1.637 0.834,-4.03 1.468,-5.477 0.818,-1.872 1.685,-3.577 2.964,-5.183 1.635,0.285 2.901,2.041 3.064,3.778 0.184,1.939 -1.647,3.468 -1.73,5.339 -0.111,2.531 1.717,0.287 1.98,-1.21 0.477,-2.714 1.658,-1.544 2.186,0.658 0.479,1.996 1.027,4.012 1.344,6.041 0.209,1.334 0.135,2.942 0.762,4.175 0.825,1.622 1.834,0.685 1.856,-0.896 0.03,-2.021 -1.417,-4.466 -2.027,-6.366 -0.879,-2.733 -1.45,-5.558 -2.319,-8.295 -0.832,-2.619 -1.752,-5.219 -2.212,-7.954 -0.501,-2.977 -0.079,-13.404 2.688,-14.643 1.998,-0.893 2.778,1.631 3.656,3.946 0.273,0.722 0.884,1.139 1.081,1.896 0.423,1.623 -0.784,4.271 0.427,5.759 2.221,2.731 1.51,-1.83 3.482,-1.668 4.168,0.342 6.985,13.124 6.393,16.202 -0.488,2.541 -0.488,3.811 -0.072,6.576 0.416,2.769 1.035,12.63 4.622,12.498 -1.737,0.064 -1.288,4.687 -1.192,5.615 0.277,2.689 1.23,5.345 1.903,7.959 0.281,1.093 0.332,2.542 1.047,3.466 0.359,0.464 1.74,1.621 2.321,1.562 -1.31,0.132 -1.479,2.103 -1.594,3.135 -0.403,3.643 0.765,7.534 1.234,11.141 0.367,2.817 0.321,12.377 4.266,11.774 0.889,1.653 -0.572,1.782 -0.977,3.284 -0.709,2.636 0.47,6.049 0.783,8.667 0.205,1.711 0.23,5.968 1.48,7.378 0.661,0.741 1.746,1.28 2.294,2.025 -0.577,1.329 -1.64,0.692 -1.575,2.491 0.135,3.775 1.266,7.658 1.781,11.421 0.243,1.779 0.521,3.535 0.881,5.293 0.146,0.712 0.145,1.767 0.488,2.395 0.762,1.389 2.236,0.877 3.438,1.394 -1.137,1.226 -1.677,1.275 -1.463,3.073 0.376,3.152 0.617,6.366 0.902,9.533 0.107,1.188 0.063,2.458 0.445,3.603 0.563,1.686 1.158,1.309 2.615,1.732 -0.632,0.683 -0.848,0.99 -0.842,1.929 0.01,1.356 0.448,2.7 0.753,4.012 0.456,1.964 0.539,3.99 0.879,5.974 0.339,1.977 0.386,4.269 1.121,6.122 0.451,1.133 1.464,1.47 2.587,1.897 -0.482,0.624 -1.119,0.863 -1.363,1.604 -0.438,1.319 0.217,3.391 0.43,4.718 0.31,1.923 0.234,4.78 1.133,6.541 0.479,0.935 1.77,1.113 2.165,2.082 -2.376,1.502 -0.877,5.021 -0.325,7.289 0.432,1.771 0.814,3.556 1.162,5.343 0.203,1.047 0.384,1.945 1.252,2.627 0.799,0.629 0.924,0.25 0.564,1.16 -0.471,1.197 -0.864,1.914 -0.744,3.227 0.154,1.676 0.371,3.349 0.55,5.021 0.181,1.7 0.058,4.714 0.987,6.244 0.432,0.71 1.594,1.161 2.312,1.498 -0.896,0.381 -1.13,0.119 -1.45,0.988 -0.845,2.274 0.024,5.938 0.209,8.272 0.111,1.423 0.021,3.306 0.935,4.481 0.688,0.887 1.149,0.582 2.086,0.65 -0.19,0.52 -0.744,0.497 -1.022,0.95 -0.217,0.351 -0.111,1.24 -0.095,1.632 0.155,3.625 0.812,7.438 1.41,11.021 0.319,-0.04 2.046,0.367 2.313,0.621 0.502,0.477 0.563,1.879 0.656,2.502 0.584,3.921 0.575,7.916 -0.629,11.683 -0.633,1.978 -0.751,4.084 -1.279,6.095 -0.598,2.278 -1.43,4.49 -2.347,6.658 -0.75,1.773 -1.571,3 -2.573,4.467 -0.971,1.424 -1.388,3.344 -2.349,4.793 -0.626,0.943 -1.313,1.855 -1.905,2.795 -0.881,1.402 -1.404,2.961 -2.123,4.465 -0.81,1.691 -1.785,3.242 -2.422,5.066 -0.294,0.842 -0.328,2.055 -0.634,2.777 -0.729,1.736 -2.998,2.215 -4.464,2.803 -2.268,0.91 -4.68,1.729 -7.129,1.906 -4.451,0.322 -7.102,7.516 -11.339,9.201 1.797,-0.748 3.39,-1.77 4.968,-3.045 1.818,-1.471 4.181,-4.348 6.456,-4.744 0.928,-0.164 1.823,0.283 2.786,0.193 1.877,-0.176 3.599,-1.256 5.43,-1.434 0.053,1.926 -2.053,4.305 -3.096,5.564 -1.238,1.498 -2.734,2.041 -4.004,3.338 -1.502,1.535 -2.73,3.463 -4.209,4.99 -1.708,1.766 -3.808,2.838 -5.747,4.199 -3.089,2.168 -8.151,3.963 -10.036,7.547 -0.854,1.621 -1.29,3.861 -1.896,5.645 -1.036,3.055 -2.529,6.051 -2.312,9.57 0.896,-1.156 1.378,-3.494 1.896,-4.994 0.855,-2.473 1.438,-6.025 2.822,-8.035 1.358,-1.967 3.891,-2.984 5.66,-4.377 3.282,-2.58 6.423,-5.27 9.791,-7.688 0.55,-0.395 2.425,-2.363 3.203,-1.529 0.622,0.664 -0.347,4.639 -0.438,5.424 -0.208,1.818 -3.287,12.449 -0.26,13.17 0.604,-1.756 0.773,-3.867 1.05,-5.762 0.408,-2.814 0.728,-5.66 1.068,-8.51 0.272,-2.283 0.457,-5.6 1.749,-7.391 0.701,-0.977 1.79,-1.803 2.595,-2.826 0.865,-1.1 1.601,-2.359 2.45,-3.488 0.49,-0.656 1.037,-2.006 1.564,-2.502 0.319,-0.299 -0.108,-0.842 0.59,-0.459 0.121,0.064 0.606,1.488 0.672,1.662 0.724,1.957 1.443,3.844 3.287,4.453 -0.336,-2.51 -2.639,-4.6 -2.887,-6.945 -0.311,-2.902 1.454,-7.291 3.051,-9.131 2.082,-2.4 3.162,-5.842 4.596,-8.916 1.02,-2.189 3.186,-8.461 5.72,-8.121 2.354,0.314 3.767,4.596 4.552,6.869 1.6,4.629 1.262,9.451 0.563,14.133 -0.491,3.293 -1.699,6.971 -1.095,10.27 0.641,3.486 2.445,6.523 3.23,9.99 0.878,3.883 1.166,8.156 -0.342,11.605 -0.979,2.238 -3.152,3.643 -1.329,6.434 0.472,0.723 1.319,1.844 2.009,1.051 0.649,-0.742 -0.212,-2.256 -0.275,-3.016 -0.209,-2.498 0.964,-5.283 1.146,-7.813 0.213,-2.932 0.074,-5.885 -0.268,-8.846 -0.44,-3.838 -2.037,-7.273 -2.244,-11.104 1.357,1.115 2.609,2.43 3.91,3.682 1.824,1.752 3.914,2.66 5.912,3.996 2.478,1.658 3.217,6.346 3.722,9.512 0.78,-1.145 -0.147,-4.975 -0.392,-6.52 -0.342,-2.176 -0.414,-3.104 -2.006,-4.379 -1.896,-1.523 -3.943,-2.771 -5.748,-4.5 -1.062,-1.018 -2.697,-2.053 -3.485,-3.371 -1.966,-3.291 -0.188,-7.807 -0.091,-11.207 0.201,-7.064 5.543,1.17 6.908,3.498 0.448,0.77 1.285,2.566 2.299,2.164 0.535,-0.217 0.922,-1.459 0.5,-2.154 -0.478,-0.787 -1.455,-0.32 -2.155,-0.889 -1.15,-0.938 -2.043,-3.383 -2.892,-4.707 -0.672,-1.055 -1.355,-1.783 -2.096,-2.752 -1.605,-2.105 -2.686,-5.865 -3.521,-8.486 -0.646,-2.029 -2.299,-5.685 -1.057,-7.611 1.608,-2.494 5.911,1.424 7.432,2.873 3.261,3.106 6.383,8.322 8.438,12.617 2.464,5.15 -0.511,11.811 -1.269,16.801 -0.36,2.375 0.781,4.969 1.166,7.432 0.277,1.777 0.443,3.457 0.443,5.215 0,0.643 -0.207,1.129 0.024,1.85 2.299,0.098 0.752,-5.453 0.401,-6.842 -0.469,-1.863 -1.146,-5.295 -0.42,-7.107 2.705,0.973 3.588,7.402 5.2,9.834 0.577,0.869 2.002,2.365 2.043,0.494 0.025,-1.152 -0.745,-1.197 -1.28,-1.758 -1.793,-1.873 -2.982,-4.709 -4.131,-7.242 -0.996,-2.197 -1.924,-4.121 -0.955,-6.418 0.129,0.025 0.153,0.104 0.297,0.123 0.695,-1.055 0.646,-2.912 0.975,-4.229 0.447,-1.795 0.54,-2.297 1.614,-0.707 3.92,5.807 7.707,12.625 10.337,19.41 2.914,7.52 -2.168,12.615 -4.373,18.748 -0.449,1.25 -0.854,2.582 -0.262,3.973 0.772,1.814 1.936,1.262 2.103,-0.531 0.133,-1.432 -0.335,-2.035 0.128,-3.508 0.743,-2.363 2.149,-4.215 2.937,-6.564 0.475,-1.422 2.153,-8.791 3.638,-4.893 0.531,1.395 0.633,2.377 1.474,3.633 1.155,1.727 1.532,2.865 1.967,5.029 0.889,4.441 2.272,8.943 2.278,13.498 0.001,1.033 -0.722,3.092 0.177,3.82 0.807,0.656 2.051,-0.383 2.407,-1.156 0.657,-1.424 0.009,-3.201 -0.521,-4.623 -1.813,-4.859 -2.914,-9.865 -4.484,-14.811 -1.159,-3.645 -3.421,-7.83 -2.526,-11.672 1.59,1.027 3.408,1.869 4.736,3.301 1.169,1.262 5.439,7.004 6.854,3.467 0.381,-0.955 0.072,-1.367 -0.503,-1.986 -0.933,-1 -1.143,-0.271 -2.04,-0.242 -1.646,0.053 -2.795,-1.256 -3.85,-2.648 -0.92,-1.215 -2.052,-2.133 -2.959,-3.359 -0.281,-0.379 -0.358,-0.84 -0.749,-1.152 -0.796,-0.643 -1.923,-0.424 -2.873,-0.781 -2.229,-0.838 -3.218,-3.223 -4.315,-5.523 -1.174,-2.461 -2.733,-4.438 -4.207,-6.641 -1.724,-2.576 -3.184,-5.395 -4.502,-8.281 -0.356,-0.781 -1.618,-3.146 -1.292,-4.018 0.449,-1.197 2.288,-0.402 3.025,-0.051 2.253,1.08 4.066,3.168 6.104,4.729 1.758,1.346 3.658,2.273 5.472,3.469 1.157,0.762 2.933,1.434 3.896,2.547 2.064,2.393 3.769,14.629 7.369,14.057 0.323,-1.172 -0.213,-2.223 -0.908,-2.982 -1.094,-1.197 -1.585,-1.316 -2.349,-3.076 -0.785,-1.814 -4.225,-9.473 -0.097,-6.648 3.512,2.402 7.194,-0.457 10.809,-0.105 2.029,0.197 6.966,7.686 8.597,5.83 0.602,-0.684 0.182,-1.988 -0.712,-2.193 -1.413,-0.324 -1.067,1.043 -2.487,-0.193 -1.302,-1.137 -2.314,-2.648 -3.603,-3.816 -1.934,-1.752 -2.462,-1.572 -4.646,-1.121 -4.225,0.873 -9.353,0.908 -13.022,-2.299 -2.566,-2.24 -5.378,-4.471 -7.898,-6.789 -0.3,-0.275 -0.612,-0.545 -0.895,-0.852 0.747,-0.594 2.126,-0.215 3.031,-0.307 1.137,-0.111 1.911,-0.131 3.069,0.377 1.396,0.611 8.115,5.994 8.793,2.285 -1.135,-0.516 -1.811,-0.572 -3.012,-0.5 -1.135,0.064 -1.521,-0.24 -2.628,-1.123 -1.528,-1.223 -3.047,-2.529 -4.82,-3.076 -1.394,-0.428 -2.201,0.232 -3.598,0.533 -1.564,0.338 -3.658,0.797 -5.267,0.156 -0.924,-0.367 -1.797,-1.297 -2.691,-1.807 -3.542,-2.02 -6.053,-4.99 -8.606,-8.594 -1.174,-1.656 -1.866,-3.486 -3.156,-5.039 -1.553,-1.873 -3.049,-4.729 -2.096,-7.299 0.889,-2.396 3.863,-2.558 5.795,-2.142 2.771,0.599 6.266,3.608 7.409,6.906 0.68,1.959 0.919,4.358 0.873,6.426 -0.022,0.968 -0.384,1.875 0.366,2.658 2.316,2.411 0.02,-5.595 -0.002,-6.339 -0.037,-1.442 0.082,-3.858 1.156,-4.354 1.134,-0.522 2.3,0.824 3.195,1.56 3.673,3.008 6.582,7.328 9.01,11.822 0.668,1.238 1.968,2.953 2.218,4.342 0.188,1.033 -0.491,2.441 0.646,2.795 1.764,0.553 0.935,-2.299 0.631,-3.209 -0.729,-2.176 -2.242,-4.924 -2.018,-7.348 0.213,-2.3 0.811,-1.47 2.018,-1.078 1.205,0.389 2.461,0.01 3.658,-0.179 1.196,-0.188 2.646,-0.729 3.754,-0.235 1.323,0.586 2.625,2.516 3.689,3.612 2.678,2.763 4.751,6.54 7.574,9.06 2.601,2.32 4.465,-0.84 7.228,0.197 0.773,0.291 3.546,2.02 2.545,-0.816 -0.431,-1.221 -1.215,-0.793 -1.947,-0.627 -0.357,0.08 -0.378,0.51 -0.733,0.553 -0.313,0.037 -0.86,-0.307 -1.181,-0.393 -3.1,-0.816 -5.045,-2.17 -7.714,-4.523 -1.727,-1.521 -3.514,-3.566 -4.697,-5.705 2.521,-0.084 4.715,-2.191 6.611,-3.867 0.655,-0.578 1.347,-1.199 2.14,-1.416 0.712,-0.195 1.601,0.254 2.333,-0.182 0.641,-0.381 1.81,-1.838 1.408,-2.869 -0.887,-2.287 -2.132,0.93 -2.423,1.752 -1.674,-0.619 -3.035,0.555 -4.413,1.395 -1.722,1.045 -3.354,1.685 -5.232,1.886 -2.468,0.268 -4.751,0.051 -7.188,-0.104 -3.041,-0.193 -5.621,-0.678 -8.558,-1.9 -6.59,-2.743 -11.776,-9.614 -18.06,-13.194 -1.364,-0.776 -2.729,-0.651 -3.994,-1.828 -1.004,-0.935 -1.854,-2.528 -3.303,-2.819 -2.388,-0.478 -3.603,3.049 -5.797,0.492 -1.228,-1.429 -1.779,-3.357 -2.538,-5.046 -0.505,-1.124 -1.318,-2.376 -1.318,-3.647 0.002,-1.563 1.473,-1.424 1.553,-2.935 0.115,-2.18 -0.713,-4.766 -1.043,-6.929 -0.22,-1.436 -0.047,-4.839 -2.084,-4.982 0.375,-0.691 1.105,-1.063 1.33,-1.834 0.354,-1.221 -0.181,-3.219 -0.459,-4.52 -0.467,-2.18 -0.697,-4.809 -1.855,-6.764 -0.411,-0.693 -0.877,-0.965 -1.605,-1.391 0.289,-1.188 1.324,-0.729 1.33,-2.24 0.014,-3.238 -0.662,-6.84 -1.375,-9.992 -0.355,-1.58 -0.367,-2.705 -1.746,-3.582 -0.492,-0.313 -1.131,-0.426 -1.016,-1.035 0.107,-0.563 1.012,-0.582 1.279,-0.959 0.334,-0.465 0.188,-1.258 0.142,-1.82 -0.122,-1.471 -0.517,-2.9 -0.69,-4.363 -0.226,-1.898 -0.156,-6.172 -1.682,-7.611 -0.515,-0.486 -1.391,-0.426 -2.027,-0.646 0.35,-0.618 1.24,-0.733 1.588,-1.476 0.33,-0.704 0.217,-1.973 0.131,-2.731 -0.418,-3.728 -0.978,-8.305 -2.563,-11.724 -0.378,0.14 -0.787,0.293 -1.154,0.443 1.026,-1.802 0.34,-3.571 -0.021,-5.43 -0.318,-1.649 -0.664,-3.37 -0.867,-5.055 -0.304,-2.52 -0.351,-5.073 -0.997,-7.533 -0.348,-1.324 -1.081,-1.605 -2.334,-1.967 0.655,-0.657 1.267,-1.381 1.341,-2.351 0.041,-0.531 -0.229,-1.237 -0.264,-1.791 -0.088,-1.469 -0.038,-2.938 -0.271,-4.401 -0.396,-2.49 -0.803,-5.22 -1.756,-7.565 -0.437,-1.077 -1.148,-1.911 -2.455,-1.916 0.221,-0.833 1.34,-1.062 1.489,-2.104 0.122,-0.853 -0.225,-2.148 -0.338,-2.998 -0.254,-1.924 -0.479,-3.859 -0.909,-5.755 -0.789,-3.481 -0.947,-7.264 -2.162,-10.63 -0.523,-1.45 -1.229,-1.28 -2.58,-1.392 1.547,-2.08 1.523,-3.584 0.965,-6.101 -0.598,-2.693 -1.19,-5.389 -1.84,-8.071 -0.422,-1.744 -0.578,-5.141 -2.14,-6.272 -0.338,-0.245 -0.687,-0.18 -0.978,-0.497 1.19,-1.101 1.064,-2.258 0.887,-3.818 -0.313,-2.751 -0.865,-5.458 -1.159,-8.237 -0.374,-3.542 -0.981,-7.087 -1.469,-10.609 -0.104,-0.751 -0.159,-1.771 -0.618,-2.396 -0.55,-0.749 -1.335,-0.558 -2.107,-0.97 0.609,-0.68 1.451,-0.925 1.84,-1.77 0.379,-0.822 0.203,-1.736 -0.014,-2.575 -0.422,-1.63 -0.717,-3.247 -0.972,-4.911 -0.167,-1.087 -0.263,-2.14 -0.431,-3.181 -0.139,-0.862 -0.325,-1.718 -0.643,-2.58 -0.166,-0.449 -1.525,-4.739 -2.624,-4.01 2.202,-1.46 1.872,-4.775 1.603,-7.024 -0.377,-3.14 -0.951,-6.243 -1.471,-9.361 -0.179,-1.079 -0.322,-2.836 -1.032,-3.772 -0.713,-0.939 -1.836,-0.678 -2.771,-1.083 0.158,-4.313 -1.358,-9 -2.22,-13.194 -0.538,-2.619 -1.535,-5.109 -2.068,-7.727 -0.211,-1.035 -1.499,-6.354 0.302,-6.504 1.274,-0.106 3.806,3.6 4.474,4.469 0.683,0.887 1.199,1.729 1.586,2.765 0.235,0.629 0.45,2.408 1.342,2.503 0.319,0.034 1.367,-0.585 1.546,-0.863 0.601,-0.932 0.025,-0.595 -0.479,-1.209 -1.205,-1.462 -4.791,-4.95 -3.688,-7.007 0.863,-1.608 3.845,-1.54 4.688,-3.095 0.248,-0.459 0.525,-0.928 -0.344,-1.17 -0.801,-0.223 -0.901,0.418 -1.418,0.826 -0.992,0.784 -2.15,1.834 -3.4,2.067 -1.816,0.339 -3.216,-1.189 -3.427,-2.901 -0.269,-2.176 1.37,-4.233 2.73,-5.736 6.033,-6.665 13.012,-10.158002 21.271,-13.402002 4.992,-1.961 8.365,-2.234996 13.285,-0.015 5.875,2.651 12.467,6.464002 15.709,12.227002 0.891,1.583 1.67,3.164 2.348,4.844 1.637,4.054 1.172,7.693 0.264,11.936 -0.724,3.382 -1.798,6.674 -2.631,10.013 -0.438,1.755 -2.105,4.716 -1.455,6.303 3.469,-3.144 2.072,-9.917 4.77,-13.343 1.334,1.319 1.924,3.793 2.688,5.516 1.604,3.617 3.006,7.241 4.817,10.78 1.485,2.905 3.4,7.587 5.949,9.717 -0.071,-2.416 -1.657,-4.772 -2.705,-6.904 -1.169,-2.377 -2.304,-4.853 -3.258,-7.313 -1.446,-3.727 -2.819,-7.118 -4.937,-10.45 -1.742,-2.741 -1.702,-5.472 -1.557,-8.769 0.078,-1.792 -0.567,-7.307 1.006,-8.468 3.89,5.332 7.821,10.854 10.507,16.948 0.715,1.623 1.12,2.637 0.938,4.509 -0.239,2.468 -2.718,7.78 -1.39,9.886 -0.717,-1.137 2.83,-8.269 3.232,-9.884 -0.004,0.01 4.952,5.572 5.315,6.087 3.655,5.188 7.315,10.649 10.214,16.291 0.706,1.375 1.357,3.281 2.641,4.067 0.399,-2.065 -2.021,-5.002 -2.957,-6.716 -1.563,-2.858 -3.243,-5.662 -4.944,-8.451 -2.661,-4.363 -5.587,-8.291 -8.574,-12.375 -1.001,-1.368 -5.613,-7.413 -4.254,-8.9 1.009,-1.104 6.483,1.112 7.59,1.476 2.05,0.674 3.948,0.78 5.907,0.894 -1.708,-3.329 -8.683,-1.856 -11.744,-3.443 -4.132,-2.143 -7.041,-6.198 -8.041,-10.765 -0.484,-2.216 -0.813,-5.588 2.306,-4.393 1.734,0.665 3.558,4.257 5.25,4.217 4.797,-0.112 -1.717,-4.993 -2.809,-5.524 -1.816,-0.884 -22.776,-7.505002 -20.723,-11.407002 1.481,-2.811996 9.401,0.244 11.086,0.845 3.42,1.22 6.899,2.531 10.45,3.325 1.777,0.397 4.498,1.27 6.199,0.444 1.033,-6.632996 -18.779,-2.489 -21.181,-8.150996 3.039,-3.558 9.132,-3.007 13.264,-2.751 3.739,0.231 8.066,-0.586 11.592,0.971 3.238,1.431 5.383,4.583 7.111,7.533996 1.261,2.149 3.539,8.153002 5.771,9.176002 1.065,-1.641 -0.687,-3.888 -1.519,-5.316002 -0.411,-0.707 -2.656,-3.068 -2.518,-3.919 0.228,-1.388 6.624,1.176 5.497,-1.646 -0.475,-1.186996 -3.379,-0.023 -3.979,-0.078 -1.345,-0.121 -1.631,-0.278 -2.736,-0.965 -1.196,-0.741996 -3.755,-3.076996 -3.85,-4.611996 -0.2,-3.248 3.727,0.331 5.279,-1.501 1.854,-2.186 -5.64,-2.625 -7.175,-2.712 -2.179,-0.125 -4.415,0.234 -6.579,-0.043 -2.871,-0.368 -4.436,-1.169 -0.938,-2.151 2.12,-0.595 4.628,-0.901 6.628,-1.81 1.581,-0.719 3.087,-1.638 4.706,-2.347 7.048,-3.084 19.66,-7.528 21.614,3.804 0.616,3.571 1.079,7.229 1.486,10.832 0.182,1.605996 0.208,3.999996 0.818,5.477996 0.943,2.280002 1.98,1.247 2.024,-1.057 0.061,-3.204 -1.257,-6.996996 -1.78,-10.190996 -0.534,-3.259 -2.862,-7.826 0.764,-9.477 1.923,1.437 3.514,3.384 5.05,5.281 2.585,3.19 5.402,6.228 7.949,9.438 3.322,4.190996 8.135,7.580996 7.998,13.308998 -0.06,2.459 -0.469,4.939 -0.811,7.383 -0.312,2.226 -2.95,8.307 -1.187,9.999 1.676,-2.602 2.31,-7.228 2.729,-10.346 1.311,1.719 1.53,4.545 3.767,5.392 1.176,-1.863 -2.849,-5.907 -3.004,-8.28 -0.153,-2.357 0.635,-6.065 3.257,-3.023 1.436,1.666 2.21,4.394 3.313,6.323 1.486,2.597 2.356,5.236 3.431,8.013 1.281,3.311 2.258,7.768 4.7,10.411 -0.836,-0.909 -0.362,-3.231 -0.688,-4.373 -0.548,-1.924 -1.643,-3.91 -2.363,-5.808 -1.174,-3.085 -2.323,-6.188 -3.235,-9.362 -0.251,-0.877 -1.576,-4.102 -0.899,-4.794 0.659,-0.673 2.969,0.355 3.719,0.587 1.767,0.545 4.642,1.689 6.424,0.588 2.832,-1.75 -0.393,-2.93 -2.143,-3.012 -7.626,-0.359 -13.03,-2.685 -18.444,-8.181002 -4.313,-4.378996 -8.287,-9.158996 -12.318,-13.806996"
   inkscape:connector-curvature="0"
   style="fill:#d8d8d8" />
<path
   id="path15_10_"
   d="m 161.79805,87.858642 c 0.902,1.77 -0.549,1.623 -2.201,1.983 -2.984,0.651 -6.027,-0.066 -7.484,-3.053"
   inkscape:connector-curvature="0"
   style="fill:#d8d8d8" />
<path
   id="path15_9_"
   d="m 169.97105,86.847642 c -1.245,0.676 -3.342,0.912 -4.736,0.974 -0.632,0.028 -1.513,0.136 -2.079,-0.203"
   inkscape:connector-curvature="0"
   style="fill:#d8d8d8" />
<path
   id="path15_8_"
   d="m 200.78905,91.516642 c -2.457,2.515996 -7.923,-1.945 -10.067,-3.525"
   inkscape:connector-curvature="0"
   style="fill:#d8d8d8" />
<path
   id="path15_1_"
   d="m 349.96305,72.861642 c -2.343,0.816 -4.56,1.912 -6.884,2.741 -0.986,0.351 -3.426,1.356 -4.488,1.195"
   inkscape:connector-curvature="0"
   style="fill:#d8d8d8" />
<path
   id="path17"
   d="m 392.40805,244.18264 c -0.135,3.624 -3.812,6.221 -3.973,9.76 -0.119,2.618 2.011,6.311 3.563,8.474 5.132,7.152 11.715,4.68 16.85,-1.244 -5.187,10.371 -18.591,16.151 -28.581,21.413 -7.342,3.866 -14.532,7.18 -21.252,12.127 -6.286,4.629 -14.014,6.877 -19.611,-0.114 -3.855,-4.817 -5.809,-13.088 -4.36,-19.101 2.177,-9.037 13.443,-10.937 20.701,-13.709 5.229,-1.999 10.688,-4.385 15.406,-7.507 3.777,-2.499 7.335,-8.658 11.723,-9.764 0.188,-0.163 0.18,-0.176 -0.025,-0.039 -2.706,1.824 -0.574,3.113 1.339,3.39 3.142,0.452 5.24,-3.295 8.22,-3.686 z"
   inkscape:connector-curvature="0"
   style="fill:#00a0c6" />
<path
   id="path19"
   d="m 229.18905,304.49064 c -3.367,-8.104 -5.116,-25.669 5.816,-31 10.935,-5.333 25.831,1.194 37.423,1.422 13.859,0.274 26.482,-2.503 39.354,-5.123 5.034,-1.024 10.14,-2.081 14.551,1.142 4.961,3.624 1.467,5.152 -3.352,6.925 -4.775,1.758 -14.878,4.544 -14.625,9.742 0.199,4.116 7.87,7.231 12.573,6.94 -1.595,0.099 -6.864,2.423 -6.447,4.655 0.378,2.016 5.073,1.925 6.623,1.937 5.563,0.042 11.532,-2.057 15.205,-6.369 -0.021,7.159 -8.317,8.118 -13.558,8.849 -7.604,1.06 -14.621,3.268 -22.026,4.931 -7.369,1.654 -15.149,2.076 -22.615,3.895 -10.279,2.502 -18.684,3.977 -29.35,4.633 -10.291,0.632 -16.474,-5.125 -19.572,-12.579 z"
   inkscape:connector-curvature="0"
   style="fill:#00a0c6" />
<path
   id="path21"
   d="m 106.24805,299.38964 c -5.478,-13.823 -2.242,-37.429 20.763,-38.572 10.852,-0.539 21.694,1.194 32.312,2.153 7.789,0.703 15.663,1.227 23.417,2.118 10.073,1.157 18.441,-2.259 28.422,-0.377 9.323,1.757 13.099,6.063 17.247,12.239 -3.154,-4.695 -9.001,-10.79 -16.384,-5.748 -3.11,2.124 -1.529,3.755 -2.833,6.33 -2.646,5.224 -12.95,-0.82 -18.431,2.272 -5.172,2.919 -6.91,9.775 -7.371,14.51 -0.942,9.673 8.219,2.592 13.636,7.583 2.749,2.532 1.876,5.73 6.314,7.824 7.893,3.725 15.433,-2.97 20.58,-7.214 -8.695,17.575 -48.065,6.845 -64.598,7.892 -11.143,0.706 -22.485,1.471 -33.501,2.182 -10.291,0.663 -16.475,-5.376 -19.573,-13.192 z"
   inkscape:connector-curvature="0"
   style="fill:#ca66ba;fill-opacity:1" />
<g
   id="g345"
   transform="translate(-350.56695,8.5695718)"
   style="fill:#febe4c;fill-opacity:1">







		<path
   id="path349_1_"
   sodipodi:nodetypes="ccssccscssssccccsscssssssssssssssssssssssssscssssccssssscsssssscccsssssssssscsssssssccssssssscscsssssssssssccsscssssccsssccsssscscscssscssscssscsssscccsssscsccsscccsssscssscsssscssscsscscscccscscsssccsssssssssssccs"
   d="m 446.064,265.345 c 33.9,1.271 67.854,3.351 101.732,4.299 26.807,0.75 54.309,5.553 81.121,5.356 29.803,-0.218 60.562,-5.654 87.329,-19.171 21.387,-10.799 42.46,-27.206 54.558,-48.226 9.204,-15.992 11.03,-37.414 4.089,-54.578 -1.006,-2.486 -2.637,-5.568 -4.727,-8.818 -7.569,-11.772 -21.159,-25.759 -32.853,-21.709 -2.891,1.001 -6.179,6.719 -8.132,9.185 -2.631,3.322 -5.148,6.401 -8,9.514 -2.127,2.322 -4.137,5.984 -6.516,7.732 -0.184,-0.288 -0.707,-1.018 -0.916,-1.232 4.968,-6.813 14.079,-12.44 17.347,-20.566 -3.686,-0.82 -6.429,1.834 -9.878,0.42 1.727,-2.28 4.188,-1.327 6.611,-2.521 13.503,-6.655 -4.695,-16.19 -7.783,-7.56 -1.084,3.029 0.471,9.036 -3.895,9.219 0.537,-2.178 1.602,-4.191 1.912,-6.566 0.1,-0.757 0.454,-4.309 0.051,-4.86 -0.278,-0.379 -0.658,-1.03 -1.157,-1.159 -0.511,-0.132 -1.262,0.229 -1.684,0.486 -1.044,0.635 -1.747,1.731 -2.276,2.803 -0.106,0.216 -0.708,1.675 -1.112,1.252 -0.351,-0.368 0.97,-1.971 1.117,-2.229 0.265,-0.462 0.927,-1.507 0.063,-1.7 -0.639,-0.141 -1.996,0.624 -2.585,0.876 -2.422,1.04 -4.729,2.178 -7.032,3.492 -1.272,0.726 -3.223,1.462 -4.142,2.648 -0.659,0.852 -1.083,1.683 -2.104,2.188 -1.126,0.556 -2.076,-0.025 -2.583,-1.145 -0.388,-0.857 -0.125,-1.755 0.766,-2.166 0.903,-0.416 1.966,-0.355 2.92,-0.561 1.673,-0.362 3.461,-0.989 4.991,-1.779 1.683,-0.87 3.437,-1.602 5.137,-2.439 1.921,-0.945 5.307,-2.858 3.911,-5.505 -0.74,-1.407 -2.269,-2.379 -3.605,-3.142 -1.89,-1.077 -3.937,-1.884 -6.005,-2.541 -2.099,-0.666 -4.259,-1.181 -6.444,-1.451 -1.585,-0.195 -3.336,-0.346 -4.891,0.119 -2.017,0.603 -12.427,4.793 -9.379,-1.865 1.059,-2.311 5.553,-0.758 7.527,-0.641 1.772,0.105 3.572,0.045 5.335,0.193 1.977,0.166 4.106,1.147 6.08,0.497 -1.129,0.087 -5.68,-6.793 -6.481,-7.727 -1.55,-1.803 -9.266,-6.574 -3.732,-8.304 4.038,-1.262 3.862,4.278 5.188,6.569 1.839,3.173 4.323,5.975 7.105,8.351 1.554,1.326 6.021,4.97 8.191,3.922 -0.579,-1.684 -1.836,-3.637 -2.643,-5.295 1.887,0.641 3.332,3.908 4.46,5.527 2.321,3.333 6.713,4.946 10.574,5.642 2.701,0.487 9.271,2.318 11.006,-0.708 1.779,-3.104 -3.023,-7.478 -4.898,-9.349 -2.849,-2.841 -6.042,-6.313 -10.485,-5.84 -1.081,0.115 -4.395,1.581 -4.211,-0.464 1.91,-0.134 5.42,0.56 4.904,-1.787 -0.323,-1.47 -2.283,-2.977 -3.2,-4.069 -2.187,-2.604 -5.028,-5.808 -8.188,-7.242 -1.738,-0.79 -6.05,-2.053 -3.191,-4.671 3.861,-3.54 5.328,2.76 6.815,4.789 3.28,4.471 7.909,8.535 11.909,12.36 0.698,0.668 1.871,2.044 2.871,2.051 0.313,-2.016 -1.143,-3.761 -1.173,-5.679 0.221,-0.005 0.452,0.002 0.669,0.006 1.044,2.774 1.563,6.133 3.7,8.34 0.604,0.625 6.263,4.427 6.479,3.438 1.354,-6.162 -4.564,-10.534 -8.619,-14.06 -0.717,-0.624 -1.524,-1.238 -2.148,-1.958 -0.904,-1.042 -1.71,-2.161 -2.703,-3.146 -0.482,-0.479 -1.135,-0.642 -1.623,-1.079 -1.407,-1.262 1.606,-3.346 2.551,-2.282 0.446,0.504 0.017,0.963 0.017,1.503 -0.002,0.933 0.99,1.979 1.502,2.681 0.207,0.284 1.619,2.483 2.077,2.302 0.348,-0.138 -0.312,-1.935 -0.264,-2.362 0.284,0.123 0.445,0.453 0.53,0.733 0.158,0.522 0.271,1.024 0.472,1.559 0.336,0.902 0.694,1.417 1.331,2.099 0.794,0.851 1.692,1.613 2.586,2.352 0.763,0.629 1.688,1.665 2.679,1.874 1.406,0.296 1.28,-2.447 1.283,-3.344 0.003,-0.75 -0.228,-1.461 -0.522,-2.155 -0.161,-0.378 -1.22,-1.785 -0.746,-2.103 0.37,0.453 0.796,1.38 1.353,1.612 0.431,-0.487 0.201,-1.978 0.201,-2.617 0,-0.711 -0.079,-1.133 -0.355,-1.764 -0.217,-0.492 -0.562,-1.29 -0.053,-1.746 0.522,-0.469 1.577,-0.142 1.845,0.462 0.283,0.641 -0.167,1.04 -0.425,1.554 -0.352,0.706 -0.358,1.719 -0.456,2.505 -0.157,1.261 -0.246,2.626 -0.15,3.902 0.035,0.462 0.074,1.376 0.594,1.592 0.339,-0.627 0.761,-1.221 1.162,-1.813 0.37,-0.545 0.783,-1.658 1.405,-1.936 0.209,1.302 -1.453,2.639 -1.943,3.712 -0.28,0.613 -0.574,1.219 -0.787,1.86 -0.225,0.676 -0.104,1.283 0.037,1.979 0.144,0.701 0.412,1.367 0.529,2.078 0.239,1.454 0.482,2.911 0.824,4.346 0.298,1.257 0.514,2.534 0.894,3.766 0.135,0.439 0.265,0.879 0.389,1.323 0.68,2.418 1.478,4.812 2.809,6.967 1.47,2.38 3.439,4.387 5.614,6.129 3.741,2.996 7.962,5.358 11.979,7.952 23.9,15.43 33.046,43.722 29.78,71.337 -3.519,29.748 -30.078,52.975 -53.934,68.224 -22.604,14.45 -48.559,25.165 -75.123,29.401 -41.778,6.661 -86.563,5.332 -128.439,0.548 -34.322,-3.921 -73.199,-8.301 -105.086,8.254"
   style="fill:#febe4c;fill-opacity:1"
   inkscape:connector-curvature="0" />
</g>
<path
   id="path539"
   enable-background="new    "
   d="m 428.86005,150.33364 c -3.35,-2.19 -7.526,-2.153 -10.063,1.92 -1.787,2.871 0.409,4.948 1.968,7.195 2.296,3.31 4.715,8.291 4.528,12.396 -0.144,3.114 -1.635,5.201 2.295,5.783 -0.317,-0.047 3.143,-3.893 3.806,-4.21 0.941,-0.452 1.963,-0.706 3.012,-0.633 1.347,0.093 2.352,1.324 3.464,1.464 5.071,0.644 0.046,-7.603 -0.774,-9.412 -1.991,-4.396 -2.756,-9.028 -6.115,-12.692 -0.647,-0.705 -1.362,-1.315 -2.121,-1.811 z"
   inkscape:connector-curvature="0"
   style="opacity:0.56999966;fill:#ca66ba;fill-opacity:1" />
<path
   id="path541"
   enable-background="new    "
   d="m 418.46005,137.40964 c -0.962,-0.757 -1.93,-1.505 -2.859,-2.264 -2.813,-2.293 -10.685,-8.917 -12.849,-2.546 -1.361,4.008 1.184,5.462 3.868,7.563 2.538,1.987 4.214,4.549 5.725,7.328 0.6,1.102 1.05,1.992 2.088,2.791 0.308,0.237 4.354,1.83 4.212,1.281 -0.845,-3.266 4.817,-5.336 6.787,-2.663 0.159,0.215 0.373,-3.079 0.186,-3.6 -0.652,-1.801 -2.023,-3.457 -3.407,-4.746 -1.178,-1.096 -2.461,-2.128 -3.751,-3.144 z"
   inkscape:connector-curvature="0"
   style="opacity:0.56999966;fill:#00a0c6" />





<linearGradient
   id="path1216_1_"
   gradientUnits="userSpaceOnUse"
   x1="486.1445"
   y1="113.6094"
   x2="581.95398"
   y2="201.1362"
   gradientTransform="matrix(1,0,0,-1,-296.606,625.776)">
	<stop
   offset="0"
   style="stop-color: rgb(143, 0, 0);"
   id="stop61" />
	<stop
   offset="0.4057"
   style="stop-color: rgb(141, 1, 1);"
   id="stop63" />
	<stop
   offset="0.5815"
   style="stop-color: rgb(134, 5, 5);"
   id="stop65" />
	<stop
   offset="0.7129"
   style="stop-color: rgb(121, 11, 11);"
   id="stop67" />
	<stop
   offset="0.8222"
   style="stop-color: rgb(103, 21, 20);"
   id="stop69" />
	<stop
   offset="0.9167"
   style="stop-color: rgb(80, 33, 32);"
   id="stop71" />
	<stop
   offset="1"
   style="stop-color: rgb(53, 47, 46);"
   id="stop73" />
</linearGradient>






<path
   id="path1230"
   enable-background="new    "
   d="m 271.72505,274.43464 c -7.555,-0.089 -15.043,-0.811 -22.593,-1.176 -3.637,-0.176 -7.964,-0.314 -11.514,0.28 -1.725,0.289 -2.616,-0.204 -4.134,1.265 -0.355,0.343 -2.075,4.229 -1.532,4.242 10.759,0.257 10.891,11.57 8.995,19.553 -1.131,4.76 -3.997,6.75 -6.571,10.503 1.716,2.04 7.247,5.491 9.723,6.409 4.179,1.549 8.209,0.408 12.653,0.102 8.998,-0.623 17.646,-3.313 26.569,-4.396 8.661,-1.053 16.758,-5.299 25.565,-6.116 4.541,-0.421 8.973,-0.635 13.524,-0.979 9.597,-0.725 16.097,-2.417 16.054,-13.396 -0.044,-11.183 -1.766,-20.231 -17.853,-22.091 -13.101,-1.515 -27.895,4.888 -41.496,5.651 -2.472,0.139 -4.935,0.178 -7.39,0.149 z"
   inkscape:connector-curvature="0"
   style="opacity:0.56999966;fill:#00a0c6" />
<path
   id="path1234"
   enable-background="new    "
   d="m 432.36805,206.11564 c -3.182,-1.658 -6.816,-2.502 -9.509,-1.922 -5.769,1.243 -6.899,8.121 -9.323,12.381 -1.922,3.375 -4.427,6.638 -6.943,9.7 -2.624,3.191 -5.444,6.366 -8.658,8.917 -2.303,1.828 -4.715,2.855 -2.341,5.325 2.493,2.594 3.345,0.602 6.008,0.066 3.68,-0.74 7.442,2.223 9.425,5.008 1.625,2.284 1.458,4.792 0.504,7.265 -0.427,1.106 -2.858,3.444 -2.224,4.709 0.779,1.55 5.263,0.201 6.532,-0.338 4.854,-2.06 7.509,-7.583 9.854,-11.961 3.042,-5.678 6.837,-10.482 9.308,-16.26 2.354,-5.508 6.542,-9.938 4.032,-16.423 -0.985,-2.544 -3.617,-4.879 -6.665,-6.467 z"
   inkscape:connector-curvature="0"
   style="opacity:0.56999966;fill:#00a0c6" />
<path
   id="path1236"
   enable-background="new    "
   d="m 441.77105,179.18664 c -0.087,-0.224 -0.183,-0.439 -0.29,-0.646 -2.459,-4.774 -8.919,-5.307 -12.913,-2.675 -5.105,3.364 -3.289,8.178 -3.841,13.122 -0.287,2.567 -0.852,4.856 -1.621,7.325 -0.583,1.871 -3.99,12.867 1.037,12.058 0.629,-1.304 0.538,-2.765 1.594,-3.792 2.416,-2.35 7.211,-1.151 9.651,0.509 1.187,0.808 2.546,2.046 2.899,3.506 0.068,0.285 -0.245,3.546 -0.808,3.059 0.078,0.068 0.153,0.14 0.224,0.218 0.675,-0.311 1.026,-0.097 1.778,0.094 -0.063,0.354 0.123,0.814 0.021,1.197 4.363,-1.209 3.31,-7.629 3.519,-11.093 0.26,-4.304 0.237,-8.5 -0.263,-12.811 -0.339,-2.942 0.137,-7.163 -0.987,-10.071 z"
   inkscape:connector-curvature="0"
   style="opacity:0.56999966;fill:#ca66ba;fill-opacity:1" />





























<path
   id="path4732"
   sodipodi:nodetypes="ccccccccccccccc"
   d="m 303.50205,174.32864 c 15.617,-8.178 35.915,-9.936 51.382,-0.483 4.84,3.631 11.338,8.345 11.063,14.983 0.237,10.212 -2.193,20.459 5.97,30.268 7.396,6.006 9.014,4.567 16.064,6.4 4.984,-1.348 7.952,4.826 0.368,4.827 -15.753,-0.494 -21.938,-12.012 -42.527,-15.123 -18.994,8.828 -26.246,26.906 -27.639,28.662 -10.555,11.718 -0.246,5.875 -8.984,9.839 -4.827,2.399 -3.826,4.182 -5.815,-1.122 -2.174,-4.841 0.241,-4.534 2.69,-8.387 8.229,-13.418 13.149,-21.975 3.946,-31.413 -0.782,-0.802 -2.087,-0.494 -4.278,0.381 -10.227,14.881 -15.229,29.077 -15.868,28.648 -0.267,-0.179 -0.002,-1.893 -0.278,-2.073 -0.451,-0.389 8.016,-17.574 10.727,-30.557 0.207,-1.75 -0.745,-4.776 -1.498,-5.35 -12.475,-9.496 -15.525,-4.47 -17.499,-1.176 -0.849,-8.504 7.499,-7.328 10.315,-12.886 4.006,-5.105 7.889,-10.306 11.861,-15.438 z"
   inkscape:connector-curvature="0"
   style="fill:#4ca1c3;stroke:#80d7e8;stroke-width:0.5;fill-opacity:1" />
<ellipse
   id="path5520"
   cx="339.26611"
   cy="185.3844"
   rx="19.65782"
   ry="15.190133"
   style="fill:#225292;fill-opacity:1" />
<linearGradient
   id="path1230-1_3_"
   gradientUnits="userSpaceOnUse"
   x1="562.62598"
   y1="358.23581"
   x2="562.62598"
   y2="358.23581"
   gradientTransform="matrix(1,0,0,-1,-256.88295,603.33864)">
	<stop
   offset="0"
   style="stop-color: rgb(0, 160, 198); stop-opacity: 0.4414;"
   id="stop244" />
	<stop
   offset="1"
   style="stop-color: rgb(191, 77, 150);"
   id="stop246" />
</linearGradient>
<path
   id="path1230-1_2_"
   sodipodi:nodetypes="ccccssssssscc"
   d="m 305.74305,245.10364 v 0"
   style="fill:url(#path1230-1_3_);stroke:#80d7e8;stroke-width:0.5"
   inkscape:connector-curvature="0" />
<linearGradient
   id="path1230-1_4_"
   gradientUnits="userSpaceOnUse"
   x1="535.79492"
   y1="274.61771"
   x2="550.53638"
   y2="347.38519"
   gradientTransform="matrix(1,0,0,-1,-256.88295,603.33864)"
   xlink:href="#path1230-1_3_">
	<stop
   offset="0"
   style="stop-color: rgb(0, 160, 198); stop-opacity: 0.4414;"
   id="stop250" />
	<stop
   offset="1"
   style="stop-color:#4ca1c3;stop-opacity:1"
   id="stop252" />
</linearGradient>
<path
   id="path1230-1_1_"
   sodipodi:nodetypes="ccccssssssscc"
   d="m 305.74305,244.68764 c -16.896,17.059 -15.872,35.485 -54.065,37.016 -3.993,1.104 -6.448,1.965 -9.252,3.676 -1.131,4.76 -0.018,7.563 -1.201,13.03 -0.303,3.159 -3.96,10.365 -10.489,9.204 1.971,2.843 3.528,7.8 14.528,9.504 8.998,-0.623 16.611,-1.933 25.534,-3.017 8.661,-1.052 27.943,-5.146 36.723,-7.688 4.541,-0.421 17.582,-2.964 22.134,-3.308 9.597,-0.725 12.467,-15.203 2.705,-20.229 -6.994,-3.601 -9.347,-3.171 -25.434,-5.031 -13.102,-1.515 7.008,-25.015 11.523,-34.387"
   style="fill:url(#path1230-1_4_);stroke:#80d7e8;stroke-width:0.5;fill-opacity:1.0;opacity:1"
   inkscape:connector-curvature="0" />
<linearGradient
   id="SVGID_1_"
   gradientUnits="userSpaceOnUse"
   x1="639.35638"
   y1="379.76709"
   x2="639.35638"
   y2="379.76709"
   gradientTransform="matrix(1,0,0,-1,-256.56695,608.07664)">
	<stop
   offset="0"
   style="stop-color: rgb(0, 160, 198); stop-opacity: 0.4414;"
   id="stop256" />
	<stop
   offset="1"
   style="stop-color: rgb(80, 135, 199);"
   id="stop258" />
</linearGradient>
<path
   sodipodi:nodetypes="cccccsssc"
   d="M 382.78905,228.30964"
   id="path260"
   style="fill:url(#SVGID_1_);stroke:#92e7ef;stroke-width:0.5"
   inkscape:connector-curvature="0" />
<linearGradient
   id="SVGID_2_"
   gradientUnits="userSpaceOnUse"
   x1="639.34961"
   y1="383.78079"
   x2="639.34961"
   y2="383.78079"
   gradientTransform="matrix(1,0,0,-1,-256.56695,608.07664)">
	<stop
   offset="0"
   style="stop-color: rgb(0, 160, 198); stop-opacity: 0.4414;"
   id="stop263" />
	<stop
   offset="1"
   style="stop-color: rgb(80, 135, 199);"
   id="stop265" />
</linearGradient>
<path
   sodipodi:nodetypes="cccccsssc"
   d="M 382.78305,224.29664"
   id="path267"
   style="fill:url(#SVGID_2_);stroke:#92e7ef;stroke-width:0.5"
   inkscape:connector-curvature="0" />
<linearGradient
   id="SVGID_3_"
   gradientUnits="userSpaceOnUse"
   x1="687.51459"
   y1="373.19479"
   x2="653.54968"
   y2="379.14661"
   gradientTransform="matrix(1,0,0,-1,-256.56695,608.07664)">
	<stop
   offset="0"
   style="stop-color: rgb(0, 160, 198); stop-opacity: 0.4414;"
   id="stop270" />
	<stop
   offset="1"
   style="stop-color:#4ca1c3;stop-opacity:1"
   id="stop272" />
</linearGradient>
<path
   sodipodi:nodetypes="cccccsssc"
   d="m 382.00505,229.41164 c 9.886,4.334 39.533,-9.245 31.531,10.884 -0.212,0.532 -1.095,1.799 -1.585,3.492 0.087,1.802 0.574,1.925 0.744,2.687 1.376,6.158 -6.835,11.94 -5.09,11.812 13.506,0 15.918,-9.571 19.437,-14.104 3.257,-6.08 8.092,-12.214 10.646,-18.368 2.354,-5.508 4.06,-7.239 1.551,-13.724 -0.984,-2.544 -0.772,-2.352 -3.82,-3.94 v 0 c -16.825,14.681 -21.764,18.777 -52.636,16.146"
   id="path274"
   style="fill:url(#SVGID_3_);stroke:#92e7ef;stroke-width:0.5"
   inkscape:connector-curvature="0" />

<path
   id="path5594"
   sodipodi:nodetypes="cc"
   d="m 260.84605,235.82864 67.416,-38.789"
   inkscape:connector-curvature="0"
   style="fill:none;stroke:#000000" />
<path
   id="path4730"
   d="m 344.15905,284.68064 64.558,0.894 -1.563,-38.422 v 0"
   inkscape:connector-curvature="0"
   style="fill:none;stroke:#000000" />
<path
   d="m 393.88605,246.24864 c -1.63,-5.917 -0.34,-10.239 6.616,-10.414 6.938,-0.175 11.162,4.01 11.911,9.941"
   id="path310"
   inkscape:connector-curvature="0"
   style="fill:none;stroke:#92e7ef;stroke-width:0.5" />
<path
   d="m 395.76705,243.53764 c -1.856,-4.615 2.247,-5.594 4.686,-5.594 3.687,0.001 8.709,2.094 9.572,6.238"
   id="path312"
   inkscape:connector-curvature="0"
   style="fill:none;stroke:#92e7ef;stroke-width:0.5" />
<path
   d="m 228.40905,280.08764 c 2.811,-4.118 5.938,-6.582 11.167,-5.773 5.25,0.813 7.143,5.773 5.967,9.436"
   id="path314"
   inkscape:connector-curvature="0"
   style="fill:none;stroke:#80d7e8;stroke-width:0.5" />
<path
   d="m 229.63905,280.53764 c 0,0 2.871,-4.688 7.304,-4.688 3.751,0 5.199,1.276 6.196,2.375 1.125,1.239 1.563,3.313 0.5,6.308"
   id="path316"
   inkscape:connector-curvature="0"
   style="fill:none;stroke:#80d7e8;stroke-width:0.5" />
<path
   d="m 231.34705,280.63964 c 0,0 2.868,-3.624 6.792,-2.936 3.293,0.578 4.801,4.646 3.813,8.271"
   id="path318"
   inkscape:connector-curvature="0"
   style="fill:none;stroke:#80d7e8;stroke-width:0.5" />
<path
   id="path1228"
   enable-background="new    "
   d="m 150.88405,262.96264 c -7.274,-0.558 -13.604,-2.118 -20.983,-1.74 -6.055,0.311 -15.454,-0.279 -18.904,4.875 -3.031,4.528 1.17,8.634 6.23,9.306 5.78,0.768 8.914,-0.355 12.13,5.24 2.205,3.837 2.595,8.979 0.684,13.05 -0.885,1.884 -2.31,4.075 -4.035,5.386 -2.279,1.731 -5.333,1.073 -7.329,2.266 -5.302,3.168 0.073,8.966 4.482,10.679 4.179,1.624 8.209,0.428 12.653,0.105 8.512,-0.617 17.034,-1.286 25.561,-1.721 8.741,-0.445 14.903,0.348 23.153,1.603 10.731,1.634 29.026,2.971 37.169,-3.367 10.565,-8.226 14.27,-25.689 5.681,-35.543 -6.718,-7.708 -19.897,-10.245 -30.774,-8.989 -15.178,1.752 -30.301,-0.023 -45.441,-1.129 -0.093,-0.007 -0.185,-0.014 -0.277,-0.021 z"
   inkscape:connector-curvature="0"
   style="opacity:0.56999966;fill:#ca66ba;fill-opacity:1" />
<path
   id="path1232"
   enable-background="new    "
   d="m 387.64805,240.02564 c -6.481,1.409 -7.754,6.719 -12.229,10.543 -2.89,2.468 -6.376,4.153 -9.683,5.97 -5.683,3.124 -11.904,4.859 -18.055,6.792 -2.914,0.917 -14.225,6.882 -8.203,10.917 1.457,0.976 4.396,0.455 6.189,1.38 3.094,1.595 5.101,4.847 6.127,8.031 0.644,1.994 0.837,4.642 0.04,6.556 -0.777,1.868 -3.701,2.438 -4.29,3.674 -2.928,6.136 6.741,4.28 9.407,2.666 11.203,-6.777 23.302,-12.348 33.996,-19.771 5.97,-4.143 16.876,-10.258 18.086,-17.855 1.29,-8.091 -7.429,-16.105 -14.308,-18.375 -2.713,-0.897 -5.015,-0.976 -7.077,-0.528 z"
   inkscape:connector-curvature="0"
   style="opacity:0.56999966;fill:#00a0c6" />
<linearGradient
   id="SVGID_4_"
   gradientUnits="userSpaceOnUse"
   x1="263.54691"
   y1="229.522"
   x2="271.82031"
   y2="229.522"
   gradientTransform="translate(23.264054,8.6596418)">
	<stop
   offset="0"
   style="stop-color: rgb(216, 216, 216);"
   id="stop323" />
	<stop
   offset="0.3135"
   style="stop-color: rgb(219, 219, 219); stop-opacity: 0.6505;"
   id="stop325" />
	<stop
   offset="0.5714"
   style="stop-color: rgb(229, 229, 229); stop-opacity: 0.3629;"
   id="stop327" />
	<stop
   offset="0.8089"
   style="stop-color: rgb(247, 247, 247); stop-opacity: 0.0982;"
   id="stop329" />
	<stop
   offset="0.897"
   style="stop-color: rgb(255, 255, 255); stop-opacity: 0;"
   id="stop331" />
</linearGradient>
<path
   d="m 287.04505,238.14564 c 0,0 -0.845,7.308 0.676,6.945 1.519,-0.365 3.687,-5.776 4.627,-7.822 0.94,-2.047 2.736,-6.008 2.736,-6.008 h -1.919 c 0,0 -1.956,6.282 -3.363,6.921 -1.406,0.639 -2.757,-0.036 -2.757,-0.036 z"
   id="path333"
   style="fill:url(#SVGID_4_)"
   inkscape:connector-curvature="0" />
<linearGradient
   id="SVGID_5_"
   gradientUnits="userSpaceOnUse"
   x1="254.81641"
   y1="193.3853"
   x2="265.91711"
   y2="188.20889"
   gradientTransform="translate(23.264054,8.6596418)">
	<stop
   offset="0"
   style="stop-color: rgb(216, 216, 216);"
   id="stop336" />
	<stop
   offset="0.2383"
   style="stop-color: rgb(222, 222, 222); stop-opacity: 0.6951;"
   id="stop338" />
	<stop
   offset="0.5469"
   style="stop-color: rgb(238, 238, 238); stop-opacity: 0.3004;"
   id="stop340" />
	<stop
   offset="0.7818"
   style="stop-color: rgb(255, 255, 255); stop-opacity: 0;"
   id="stop342" />
</linearGradient>
<path
   d="m 278.77205,198.35064 c 0,0 0.407,8.409 1.242,7.088 2.691,-4.257 2.087,-4.125 4.562,-5.7 2.391,-1.522 5.313,-1.352 5.313,-1.352 l -4,-4.349 c 0,0 -3.625,2.5 -4.36,4.348 -0.572,1.436 -2.757,-0.035 -2.757,-0.035 z"
   id="path344"
   style="fill:url(#SVGID_5_)"
   inkscape:connector-curvature="0" />
<linearGradient
   id="SVGID_6_"
   gradientUnits="userSpaceOnUse"
   x1="673.75"
   y1="443.271"
   x2="638.47498"
   y2="449.45239"
   gradientTransform="matrix(1,0,0,-1,-256.56695,608.07664)">
	<stop
   offset="0"
   style="stop-color: rgb(0, 160, 198); stop-opacity: 0.4414;"
   id="stop347" />
	<stop
   offset="1"
   style="stop-color:#4ca1c3;stop-opacity:1"
   id="stop349" />
</linearGradient>
<path
   sodipodi:nodetypes="cccccsssc"
   d="m 365.88405,189.41264 c 29.535,-5.375 38.303,-47.311 50.72,-44.25 1.343,0.75 1.343,1.375 2.655,1.75 2.298,0.949 3.83,-0.262 4,0.5 2.223,0.375 1.84,1.602 3.585,1.474 0.022,-6.099 -2.835,-5.974 -4.504,-7.747 -3.76,-3.73 -3.175,-3.267 -6.287,-5.851 -3.52,-2.391 -7.085,-5.954 -9.884,-5.954 -2.16,0.57 -1.611,2.314 -0.91,3.579 l 1,2 c 2.577,3.75 -13.513,43.409 -43.871,46.125"
   id="path351"
   style="fill:url(#SVGID_6_);stroke:#92e7ef;stroke-width:0.5"
   inkscape:connector-curvature="0" />
<path
   d="m 418.64505,151.56264 c 0,0 -2.457,0.563 -2.925,-0.711 -0.985,-2.688 2.409,-4.513 4.955,-3.583"
   id="path353"
   inkscape:connector-curvature="0"
   style="fill:none;stroke:#92e7ef;stroke-width:0.5" />
<path
   d="m 418.31705,150.53464 c 0,0 -1.207,-0.617 -0.206,-1.872 1.105,-1.386 3.326,-0.804 3.326,-0.804"
   id="path355"
   inkscape:connector-curvature="0"
   style="fill:none;stroke:#92e7ef;stroke-width:0.5" />

<path
   id="path5594_1_"
   sodipodi:nodetypes="cc"
   d="m 245.87905,199.25364 61.3,-9.841"
   inkscape:connector-curvature="0"
   style="fill:none;stroke:#000000" />
<text
   xml:space="preserve"
   style="font-style:normal;font-weight:normal;font-size:40px;line-height:1.25;font-family:sans-serif;letter-spacing:0px;word-spacing:0px;fill:#000000;fill-opacity:1;stroke:none"
   x="204.42738"
   y="240.26328"
   id="text4813"><tspan
     sodipodi:role="line"
     id="tspan4811"
     x="204.42738"
     y="240.26328"
     style="font-style:normal;font-variant:normal;font-weight:normal;font-stretch:normal;font-size:16px;font-family:'Times New Roman';-inkscape-font-specification:'Times New Roman, '">Nucleus</tspan></text>
<text
   xml:space="preserve"
   style="font-style:normal;font-weight:normal;font-size:40px;line-height:1.25;font-family:sans-serif;letter-spacing:0px;word-spacing:0px;fill:#000000;fill-opacity:1;stroke:none"
   x="134.93159"
   y="204.31717"
   id="text4817"><tspan
     sodipodi:role="line"
     id="tspan4815"
     x="134.93159"
     y="204.31717"
     style="font-style:normal;font-variant:normal;font-weight:normal;font-stretch:normal;font-size:16px;font-family:'Times New Roman';-inkscape-font-specification:'Times New Roman, '">Oligodendrocyte</tspan></text>
<text
   xml:space="preserve"
   style="font-style:normal;font-weight:normal;font-size:40px;line-height:1.25;font-family:sans-serif;letter-spacing:0px;word-spacing:0px;fill:#000000;fill-opacity:1;stroke:none"
   x="378.16681"
   y="322.93933"
   id="text4821"><tspan
     sodipodi:role="line"
     id="tspan4819"
     x="378.16681"
     y="322.93933"
     style="font-style:normal;font-variant:normal;font-weight:normal;font-stretch:normal;font-size:16px;font-family:'Times New Roman';-inkscape-font-specification:'Times New Roman, '">Myelin sheath</tspan></text>
<text
   xml:space="preserve"
   style="font-style:normal;font-weight:normal;font-size:40px;line-height:1.25;font-family:sans-serif;letter-spacing:0px;word-spacing:0px;fill:#000000;fill-opacity:1;stroke:none"
   x="403.32904"
   y="298.97522"
   id="text4825"><tspan
     sodipodi:role="line"
     id="tspan4823"
     x="403.32904"
     y="298.97522"
     style="font-style:normal;font-variant:normal;font-weight:normal;font-stretch:normal;font-size:16px;font-family:'Times New Roman';-inkscape-font-specification:'Times New Roman, '">Node of Ranvier</tspan></text>
<path
   id="path5594_1_-0"
   sodipodi:nodetypes="cc"
   d="m 316.97795,306.74323 61.26936,11.42355"
   inkscape:connector-curvature="0"
   style="fill:none;stroke:#000000;stroke-width:1.07714033" /></svg>